<svg width="128" height="128" viewBox="0 0 32 32" xmlns="http://www.w3.org/2000/svg" aria-label="ResumeForge logo">
  <defs>
    <linearGradient id="rfGrad" x1="0%" y1="0%" x2="100%" y2="100%">
      <stop offset="0%" stop-color="#e8c97a"/>
      <stop offset="100%" stop-color="#7a6430"/>
    </linearGradient>
  </defs>
  <rect x="0.5" y="0.5" width="31" height="31" rx="8" fill="#1a1916" stroke="#2e2c28"/>
  <path d="M9 23V9h7.4c3.1 0 5.1 1.8 5.1 4.6 0 2-1.1 3.6-3 4.2L21.5 23h-3.3l-3.5-4.9h-2.3V23H9zm3.4-7.5h3.9c1.5 0 2.4-.8 2.4-2.1s-.9-2.1-2.4-2.1h-3.9v4.2z" fill="url(#rfGrad)"/>
  <path d="M25.2 5.5l.8 1.9 1.9.8-1.9.8-.8 1.9-.8-1.9-1.9-.8 1.9-.8.8-1.9z" fill="#e8c97a"/>
</svg>
